<?xml version="1.0" encoding="utf-8" standalone="no"?>
<!DOCTYPE svg PUBLIC "-//W3C//DTD SVG 1.1//EN"
  "http://www.w3.org/Graphics/SVG/1.1/DTD/svg11.dtd">
<svg xmlns:xlink="http://www.w3.org/1999/xlink" width="567.64875pt" height="423.129375pt" viewBox="0 0 567.64875 423.129375" xmlns="http://www.w3.org/2000/svg" version="1.1">
 <metadata>
  <rdf:RDF xmlns:dc="http://purl.org/dc/elements/1.1/" xmlns:cc="http://creativecommons.org/ns#" xmlns:rdf="http://www.w3.org/1999/02/22-rdf-syntax-ns#">
   <cc:Work>
    <dc:type rdf:resource="http://purl.org/dc/dcmitype/StillImage"/>
    <dc:date>2026-08-21T17:13:06.389769</dc:date>
    <dc:format>image/svg+xml</dc:format>
    <dc:creator>
     <cc:Agent>
      <dc:title>Matplotlib v3.10.9, https://matplotlib.org/</dc:title>
     </cc:Agent>
    </dc:creator>
   </cc:Work>
  </rdf:RDF>
 </metadata>
 <defs>
  <style type="text/css">*{stroke-linejoin: round; stroke-linecap: butt}</style>
 </defs>
 <g id="figure_1">
  <g id="patch_1">
   <path d="M 0 423.129375 
L 567.64875 423.129375 
L 567.64875 0 
L 0 0 
L 0 423.129375 
z
" style="fill: none"/>
  </g>
  <g id="axes_1">
   <g id="patch_2">
    <path d="M 98.60875 415.929375 
L 560.44875 415.929375 
L 560.44875 102.089375 
L 98.60875 102.089375 
L 98.60875 415.929375 
z
" style="fill: none"/>
   </g>
   <g id="QuadMesh_1">
    <path d="M 98.60875 102.089375 
L 214.06875 102.089375 
L 214.06875 180.549375 
L 98.60875 180.549375 
L 98.60875 102.089375 
" clip-path="url(#pd3181a7c62)" style="fill: #00fbc0; stroke: #00ffcc"/>
    <path d="M 214.06875 102.089375 
L 329.52875 102.089375 
L 329.52875 180.549375 
L 214.06875 180.549375 
L 214.06875 102.089375 
" clip-path="url(#pd3181a7c62)" style="fill: #0c1715; stroke: #00ffcc"/>
    <path d="M 329.52875 102.089375 
L 444.98875 102.089375 
L 444.98875 180.549375 
L 329.52875 180.549375 
L 329.52875 102.089375 
" clip-path="url(#pd3181a7c62)" style="fill: #0d1117; stroke: #00ffcc"/>
    <path d="M 444.98875 102.089375 
L 560.44875 102.089375 
L 560.44875 180.549375 
L 444.98875 180.549375 
L 444.98875 102.089375 
" clip-path="url(#pd3181a7c62)" style="fill: #0c1516; stroke: #00ffcc"/>
    <path d="M 98.60875 180.549375 
L 214.06875 180.549375 
L 214.06875 259.009375 
L 98.60875 259.009375 
L 98.60875 180.549375 
" clip-path="url(#pd3181a7c62)" style="fill: #0b1914; stroke: #00ffcc"/>
    <path d="M 214.06875 180.549375 
L 329.52875 180.549375 
L 329.52875 259.009375 
L 214.06875 259.009375 
L 214.06875 180.549375 
" clip-path="url(#pd3181a7c62)" style="fill: #00f3ad; stroke: #00ffcc"/>
    <path d="M 329.52875 180.549375 
L 444.98875 180.549375 
L 444.98875 259.009375 
L 329.52875 259.009375 
L 329.52875 180.549375 
" clip-path="url(#pd3181a7c62)" style="fill: #0c1715; stroke: #00ffcc"/>
    <path d="M 444.98875 180.549375 
L 560.44875 180.549375 
L 560.44875 259.009375 
L 444.98875 259.009375 
L 444.98875 180.549375 
" clip-path="url(#pd3181a7c62)" style="fill: #0d1216; stroke: #00ffcc"/>
    <path d="M 98.60875 259.009375 
L 214.06875 259.009375 
L 214.06875 337.469375 
L 98.60875 337.469375 
L 98.60875 259.009375 
" clip-path="url(#pd3181a7c62)" style="fill: #0d1216; stroke: #00ffcc"/>
    <path d="M 214.06875 259.009375 
L 329.52875 259.009375 
L 329.52875 337.469375 
L 214.06875 337.469375 
L 214.06875 259.009375 
" clip-path="url(#pd3181a7c62)" style="fill: #0c1516; stroke: #00ffcc"/>
    <path d="M 329.52875 259.009375 
L 444.98875 259.009375 
L 444.98875 337.469375 
L 329.52875 337.469375 
L 329.52875 259.009375 
" clip-path="url(#pd3181a7c62)" style="fill: #00ffcc; stroke: #00ffcc"/>
    <path d="M 444.98875 259.009375 
L 560.44875 259.009375 
L 560.44875 337.469375 
L 444.98875 337.469375 
L 444.98875 259.009375 
" clip-path="url(#pd3181a7c62)" style="fill: #0d1117; stroke: #00ffcc"/>
    <path d="M 98.60875 337.469375 
L 214.06875 337.469375 
L 214.06875 415.929375 
L 98.60875 415.929375 
L 98.60875 337.469375 
" clip-path="url(#pd3181a7c62)" style="fill: #0a1e12; stroke: #00ffcc"/>
    <path d="M 214.06875 337.469375 
L 329.52875 337.469375 
L 329.52875 415.929375 
L 214.06875 415.929375 
L 214.06875 337.469375 
" clip-path="url(#pd3181a7c62)" style="fill: #0d1216; stroke: #00ffcc"/>
    <path d="M 329.52875 337.469375 
L 444.98875 337.469375 
L 444.98875 415.929375 
L 329.52875 415.929375 
L 329.52875 337.469375 
" clip-path="url(#pd3181a7c62)" style="fill: #0b1914; stroke: #00ffcc"/>
    <path d="M 444.98875 337.469375 
L 560.44875 337.469375 
L 560.44875 415.929375 
L 444.98875 415.929375 
L 444.98875 337.469375 
" clip-path="url(#pd3181a7c62)" style="fill: #00ea92; stroke: #00ffcc"/>
   </g>
   <g id="matplotlib.axis_1">
    <g id="xtick_1">
     <g id="line2d_1">
      <defs>
       <path id="md2d7be496f" d="M 0 0 
L 0 -3.5 
" style="stroke: #ffffff; stroke-width: 0.8"/>
      </defs>
      <g>
       <use xlink:href="#md2d7be496f" x="156.33875" y="102.089375" style="fill: #ffffff; stroke: #ffffff; stroke-width: 0.8"/>
      </g>
     </g>
     <g id="text_1">
      <!-- Bull -->
      <g style="fill: #a3b3bc" transform="translate(141.89 92.59375) scale(0.12 -0.12)">
       <defs>
        <path id="DejaVuSansMono-Bold-42" d="M 1281 2119 
L 1281 738 
L 1894 738 
Q 2334 738 2511 888 
Q 2688 1038 2688 1409 
Q 2688 1788 2503 1953 
Q 2319 2119 1894 2119 
L 1281 2119 
z
M 1281 3938 
L 1281 2853 
L 1894 2853 
Q 2244 2853 2392 2978 
Q 2541 3103 2541 3391 
Q 2541 3678 2389 3808 
Q 2238 3938 1894 3938 
L 1281 3938 
z
M 391 4672 
L 1894 4672 
Q 2672 4672 3064 4376 
Q 3456 4081 3456 3494 
Q 3456 3044 3225 2791 
Q 2994 2538 2547 2497 
Q 3081 2444 3351 2137 
Q 3622 1831 3622 1281 
Q 3622 606 3215 303 
Q 2809 0 1894 0 
L 391 0 
L 391 4672 
z
" transform="scale(0.015625)"/>
        <path id="DejaVuSansMono-Bold-75" d="M 500 1222 
L 500 3500 
L 1416 3500 
L 1416 1363 
Q 1416 984 1522 821 
Q 1628 659 1875 659 
Q 2122 659 2261 878 
Q 2400 1097 2400 1491 
L 2400 3500 
L 3316 3500 
L 3316 0 
L 2400 0 
L 2400 519 
Q 2303 228 2070 68 
Q 1838 -91 1509 -91 
Q 1009 -91 754 240 
Q 500 572 500 1222 
z
" transform="scale(0.015625)"/>
        <path id="DejaVuSansMono-Bold-6c" d="M 1209 1459 
L 1209 4159 
L 281 4159 
L 281 4863 
L 2125 4863 
L 2125 1459 
Q 2125 1047 2253 875 
Q 2381 703 2688 703 
L 3419 703 
L 3419 0 
L 2431 0 
Q 1778 0 1493 337 
Q 1209 675 1209 1459 
z
" transform="scale(0.015625)"/>
       </defs>
       <use xlink:href="#DejaVuSansMono-Bold-42"/>
       <use xlink:href="#DejaVuSansMono-Bold-75" transform="translate(60.205078 0)"/>
       <use xlink:href="#DejaVuSansMono-Bold-6c" transform="translate(120.410156 0)"/>
       <use xlink:href="#DejaVuSansMono-Bold-6c" transform="translate(180.615234 0)"/>
      </g>
     </g>
    </g>
    <g id="xtick_2">
     <g id="line2d_2">
      <g>
       <use xlink:href="#md2d7be496f" x="271.79875" y="102.089375" style="fill: #ffffff; stroke: #ffffff; stroke-width: 0.8"/>
      </g>
     </g>
     <g id="text_2">
      <!-- Bear -->
      <g style="fill: #a3b3bc" transform="translate(257.35 92.59375) scale(0.12 -0.12)">
       <defs>
        <path id="DejaVuSansMono-Bold-65" d="M 3444 172 
Q 3125 41 2794 -25 
Q 2463 -91 2094 -91 
Q 1216 -91 752 379 
Q 288 850 288 1734 
Q 288 2591 734 3087 
Q 1181 3584 1953 3584 
Q 2731 3584 3161 3123 
Q 3591 2663 3591 1825 
L 3591 1453 
L 1219 1453 
Q 1222 1041 1462 837 
Q 1703 634 2181 634 
Q 2497 634 2803 725 
Q 3109 816 3444 1013 
L 3444 172 
z
M 2669 2141 
Q 2663 2503 2483 2689 
Q 2303 2875 1953 2875 
Q 1638 2875 1450 2683 
Q 1263 2491 1228 2138 
L 2669 2141 
z
" transform="scale(0.015625)"/>
        <path id="DejaVuSansMono-Bold-61" d="M 2188 1644 
Q 1675 1644 1472 1512 
Q 1269 1381 1269 1063 
Q 1269 825 1409 684 
Q 1550 544 1791 544 
Q 2153 544 2353 817 
Q 2553 1091 2553 1581 
L 2553 1644 
L 2188 1644 
z
M 3463 1997 
L 3463 0 
L 2553 0 
L 2553 391 
Q 2388 159 2128 34 
Q 1869 -91 1556 -91 
Q 959 -91 626 225 
Q 294 541 294 1106 
Q 294 1719 691 2011 
Q 1088 2303 1919 2303 
L 2553 2303 
L 2553 2456 
Q 2553 2678 2392 2792 
Q 2231 2906 1919 2906 
Q 1591 2906 1283 2823 
Q 975 2741 641 2559 
L 641 3341 
Q 944 3466 1256 3525 
Q 1569 3584 1919 3584 
Q 2772 3584 3117 3237 
Q 3463 2891 3463 1997 
z
" transform="scale(0.015625)"/>
        <path id="DejaVuSansMono-Bold-72" d="M 3597 2534 
Q 3447 2672 3245 2740 
Q 3044 2809 2803 2809 
Q 2513 2809 2295 2707 
Q 2078 2606 1959 2413 
Q 1884 2294 1854 2125 
Q 1825 1956 1825 1613 
L 1825 0 
L 909 0 
L 909 3500 
L 1825 3500 
L 1825 2956 
Q 1959 3256 2237 3420 
Q 2516 3584 2888 3584 
Q 3075 3584 3254 3539 
Q 3434 3494 3597 3406 
L 3597 2534 
z
" transform="scale(0.015625)"/>
       </defs>
       <use xlink:href="#DejaVuSansMono-Bold-42"/>
       <use xlink:href="#DejaVuSansMono-Bold-65" transform="translate(60.205078 0)"/>
       <use xlink:href="#DejaVuSansMono-Bold-61" transform="translate(120.410156 0)"/>
       <use xlink:href="#DejaVuSansMono-Bold-72" transform="translate(180.615234 0)"/>
      </g>
     </g>
    </g>
    <g id="xtick_3">
     <g id="line2d_3">
      <g>
       <use xlink:href="#md2d7be496f" x="387.25875" y="102.089375" style="fill: #ffffff; stroke: #ffffff; stroke-width: 0.8"/>
      </g>
     </g>
     <g id="text_3">
      <!-- Mean Rev -->
      <g style="fill: #a3b3bc" transform="translate(358.36125 92.59375) scale(0.12 -0.12)">
       <defs>
        <path id="DejaVuSansMono-Bold-4d" d="M 269 4666 
L 1369 4666 
L 1925 2619 
L 2478 4666 
L 3584 4666 
L 3584 0 
L 2791 0 
L 2791 3738 
L 2297 1697 
L 1563 1697 
L 1063 3738 
L 1063 0 
L 269 0 
L 269 4666 
z
" transform="scale(0.015625)"/>
        <path id="DejaVuSansMono-Bold-6e" d="M 3347 2272 
L 3347 0 
L 2438 0 
L 2438 2131 
Q 2438 2513 2330 2677 
Q 2222 2841 1978 2841 
Q 1731 2841 1589 2619 
Q 1447 2397 1447 2003 
L 1447 0 
L 538 0 
L 538 3500 
L 1447 3500 
L 1447 2975 
Q 1544 3266 1778 3425 
Q 2013 3584 2344 3584 
Q 2841 3584 3094 3254 
Q 3347 2925 3347 2272 
z
" transform="scale(0.015625)"/>
        <path id="DejaVuSansMono-Bold-20" transform="scale(0.015625)"/>
        <path id="DejaVuSansMono-Bold-52" d="M 2522 2203 
Q 2659 2175 2761 2073 
Q 2863 1972 3009 1678 
L 3853 0 
L 2841 0 
L 2278 1178 
Q 2253 1228 2213 1316 
Q 1966 1844 1631 1844 
L 1338 1844 
L 1338 0 
L 416 0 
L 416 4666 
L 1747 4666 
Q 2647 4666 3039 4347 
Q 3431 4028 3431 3309 
Q 3431 2828 3197 2543 
Q 2963 2259 2522 2203 
z
M 1338 3891 
L 1338 2619 
L 1772 2619 
Q 2150 2619 2314 2767 
Q 2478 2916 2478 3256 
Q 2478 3597 2315 3744 
Q 2153 3891 1772 3891 
L 1338 3891 
z
" transform="scale(0.015625)"/>
        <path id="DejaVuSansMono-Bold-76" d="M 3603 3500 
L 2491 0 
L 1363 0 
L 250 3500 
L 1178 3500 
L 1925 769 
L 2675 3500 
L 3603 3500 
z
" transform="scale(0.015625)"/>
       </defs>
       <use xlink:href="#DejaVuSansMono-Bold-4d"/>
       <use xlink:href="#DejaVuSansMono-Bold-65" transform="translate(60.205078 0)"/>
       <use xlink:href="#DejaVuSansMono-Bold-61" transform="translate(120.410156 0)"/>
       <use xlink:href="#DejaVuSansMono-Bold-6e" transform="translate(180.615234 0)"/>
       <use xlink:href="#DejaVuSansMono-Bold-20" transform="translate(240.820312 0)"/>
       <use xlink:href="#DejaVuSansMono-Bold-52" transform="translate(301.025391 0)"/>
       <use xlink:href="#DejaVuSansMono-Bold-65" transform="translate(361.230469 0)"/>
       <use xlink:href="#DejaVuSansMono-Bold-76" transform="translate(421.435547 0)"/>
      </g>
     </g>
    </g>
    <g id="xtick_4">
     <g id="line2d_4">
      <g>
       <use xlink:href="#md2d7be496f" x="502.71875" y="102.089375" style="fill: #ffffff; stroke: #ffffff; stroke-width: 0.8"/>
      </g>
     </g>
     <g id="text_4">
      <!-- Breakout -->
      <g style="fill: #a3b3bc" transform="translate(473.82125 92.59375) scale(0.12 -0.12)">
       <defs>
        <path id="DejaVuSansMono-Bold-6b" d="M 544 4863 
L 1459 4863 
L 1459 2309 
L 2559 3500 
L 3669 3500 
L 2344 2194 
L 3744 0 
L 2731 0 
L 1772 1638 
L 1459 1338 
L 1459 0 
L 544 0 
L 544 4863 
z
" transform="scale(0.015625)"/>
        <path id="DejaVuSansMono-Bold-6f" d="M 1925 2841 
Q 1597 2841 1409 2552 
Q 1222 2263 1222 1747 
Q 1222 1231 1409 942 
Q 1597 653 1925 653 
Q 2256 653 2443 942 
Q 2631 1231 2631 1747 
Q 2631 2263 2443 2552 
Q 2256 2841 1925 2841 
z
M 306 1747 
Q 306 2594 745 3089 
Q 1184 3584 1925 3584 
Q 2669 3584 3108 3089 
Q 3547 2594 3547 1747 
Q 3547 900 3108 404 
Q 2669 -91 1925 -91 
Q 1184 -91 745 404 
Q 306 900 306 1747 
z
" transform="scale(0.015625)"/>
        <path id="DejaVuSansMono-Bold-74" d="M 2156 4494 
L 2156 3500 
L 3353 3500 
L 3353 2797 
L 2156 2797 
L 2156 1141 
Q 2156 906 2270 804 
Q 2384 703 2650 703 
L 3353 703 
L 3353 0 
L 2584 0 
Q 1797 0 1519 251 
Q 1241 503 1241 1184 
L 1241 2797 
L 347 2797 
L 347 3500 
L 1241 3500 
L 1241 4494 
L 2156 4494 
z
" transform="scale(0.015625)"/>
       </defs>
       <use xlink:href="#DejaVuSansMono-Bold-42"/>
       <use xlink:href="#DejaVuSansMono-Bold-72" transform="translate(60.205078 0)"/>
       <use xlink:href="#DejaVuSansMono-Bold-65" transform="translate(120.410156 0)"/>
       <use xlink:href="#DejaVuSansMono-Bold-61" transform="translate(180.615234 0)"/>
       <use xlink:href="#DejaVuSansMono-Bold-6b" transform="translate(240.820312 0)"/>
       <use xlink:href="#DejaVuSansMono-Bold-6f" transform="translate(301.025391 0)"/>
       <use xlink:href="#DejaVuSansMono-Bold-75" transform="translate(361.230469 0)"/>
       <use xlink:href="#DejaVuSansMono-Bold-74" transform="translate(421.435547 0)"/>
      </g>
     </g>
    </g>
    <g id="text_5">
     <!-- ACTUAL MARKET REGIME -->
     <g style="fill: #00ffcc" transform="translate(257.285 68.475625) scale(0.12 -0.12)">
      <defs>
       <path id="DejaVuSansMono-Bold-41" d="M 1925 3822 
L 1491 1913 
L 2363 1913 
L 1925 3822 
z
M 1363 4666 
L 2491 4666 
L 3750 0 
L 2828 0 
L 2541 1153 
L 1306 1153 
L 1025 0 
L 103 0 
L 1363 4666 
z
" transform="scale(0.015625)"/>
       <path id="DejaVuSansMono-Bold-43" d="M 3378 134 
Q 3159 22 2918 -34 
Q 2678 -91 2413 -91 
Q 1469 -91 972 531 
Q 475 1153 475 2328 
Q 475 3506 972 4128 
Q 1469 4750 2413 4750 
Q 2678 4750 2922 4694 
Q 3166 4638 3378 4525 
L 3378 3500 
Q 3141 3719 2917 3820 
Q 2694 3922 2456 3922 
Q 1950 3922 1692 3520 
Q 1434 3119 1434 2328 
Q 1434 1541 1692 1139 
Q 1950 738 2456 738 
Q 2694 738 2917 839 
Q 3141 941 3378 1159 
L 3378 134 
z
" transform="scale(0.015625)"/>
       <path id="DejaVuSansMono-Bold-54" d="M 2388 0 
L 1466 0 
L 1466 3859 
L 281 3859 
L 281 4666 
L 3572 4666 
L 3572 3859 
L 2388 3859 
L 2388 0 
z
" transform="scale(0.015625)"/>
       <path id="DejaVuSansMono-Bold-55" d="M 331 1722 
L 331 4666 
L 1253 4666 
L 1253 1491 
Q 1253 1141 1431 942 
Q 1609 744 1925 744 
Q 2241 744 2419 942 
Q 2597 1141 2597 1491 
L 2597 4666 
L 3519 4666 
L 3519 1722 
Q 3519 772 3141 340 
Q 2763 -91 1925 -91 
Q 1091 -91 711 340 
Q 331 772 331 1722 
z
" transform="scale(0.015625)"/>
       <path id="DejaVuSansMono-Bold-4c" d="M 703 0 
L 703 4666 
L 1625 4666 
L 1625 813 
L 3597 813 
L 3597 0 
L 703 0 
z
" transform="scale(0.015625)"/>
       <path id="DejaVuSansMono-Bold-4b" d="M 366 4666 
L 1288 4666 
L 1288 2822 
L 2731 4666 
L 3775 4666 
L 2303 2828 
L 3828 0 
L 2803 0 
L 1697 2100 
L 1288 1581 
L 1288 0 
L 366 0 
L 366 4666 
z
" transform="scale(0.015625)"/>
       <path id="DejaVuSansMono-Bold-45" d="M 3431 0 
L 525 0 
L 525 4666 
L 3431 4666 
L 3431 3853 
L 1447 3853 
L 1447 2847 
L 3244 2847 
L 3244 2034 
L 1447 2034 
L 1447 813 
L 3431 813 
L 3431 0 
z
" transform="scale(0.015625)"/>
       <path id="DejaVuSansMono-Bold-47" d="M 2725 844 
L 2725 1734 
L 2094 1734 
L 2094 2509 
L 3531 2509 
L 3531 372 
Q 3266 144 2945 26 
Q 2625 -91 2259 -91 
Q 1353 -91 859 539 
Q 366 1169 366 2328 
Q 366 3506 864 4128 
Q 1363 4750 2303 4750 
Q 2584 4750 2856 4670 
Q 3128 4591 3366 4441 
L 3366 3419 
Q 3172 3669 2920 3795 
Q 2669 3922 2369 3922 
Q 1844 3922 1584 3526 
Q 1325 3131 1325 2328 
Q 1325 1550 1575 1144 
Q 1825 738 2303 738 
Q 2447 738 2553 764 
Q 2659 791 2725 844 
z
" transform="scale(0.015625)"/>
       <path id="DejaVuSansMono-Bold-49" d="M 538 3853 
L 538 4666 
L 3316 4666 
L 3316 3853 
L 2388 3853 
L 2388 813 
L 3316 813 
L 3316 0 
L 538 0 
L 538 813 
L 1466 813 
L 1466 3853 
L 538 3853 
z
" transform="scale(0.015625)"/>
      </defs>
      <use xlink:href="#DejaVuSansMono-Bold-41"/>
      <use xlink:href="#DejaVuSansMono-Bold-43" transform="translate(60.205078 0)"/>
      <use xlink:href="#DejaVuSansMono-Bold-54" transform="translate(120.410156 0)"/>
      <use xlink:href="#DejaVuSansMono-Bold-55" transform="translate(180.615234 0)"/>
      <use xlink:href="#DejaVuSansMono-Bold-41" transform="translate(240.820312 0)"/>
      <use xlink:href="#DejaVuSansMono-Bold-4c" transform="translate(301.025391 0)"/>
      <use xlink:href="#DejaVuSansMono-Bold-20" transform="translate(361.230469 0)"/>
      <use xlink:href="#DejaVuSansMono-Bold-4d" transform="translate(421.435547 0)"/>
      <use xlink:href="#DejaVuSansMono-Bold-41" transform="translate(481.640625 0)"/>
      <use xlink:href="#DejaVuSansMono-Bold-52" transform="translate(541.845703 0)"/>
      <use xlink:href="#DejaVuSansMono-Bold-4b" transform="translate(602.050781 0)"/>
      <use xlink:href="#DejaVuSansMono-Bold-45" transform="translate(662.255859 0)"/>
      <use xlink:href="#DejaVuSansMono-Bold-54" transform="translate(722.460938 0)"/>
      <use xlink:href="#DejaVuSansMono-Bold-20" transform="translate(782.666016 0)"/>
      <use xlink:href="#DejaVuSansMono-Bold-52" transform="translate(842.871094 0)"/>
      <use xlink:href="#DejaVuSansMono-Bold-45" transform="translate(903.076172 0)"/>
      <use xlink:href="#DejaVuSansMono-Bold-47" transform="translate(963.28125 0)"/>
      <use xlink:href="#DejaVuSansMono-Bold-49" transform="translate(1023.486328 0)"/>
      <use xlink:href="#DejaVuSansMono-Bold-4d" transform="translate(1083.691406 0)"/>
      <use xlink:href="#DejaVuSansMono-Bold-45" transform="translate(1143.896484 0)"/>
     </g>
    </g>
   </g>
   <g id="matplotlib.axis_2">
    <g id="ytick_1">
     <g id="line2d_5">
      <defs>
       <path id="m15774b5e68" d="M 0 0 
L -3.5 0 
" style="stroke: #ffffff; stroke-width: 0.8"/>
      </defs>
      <g>
       <use xlink:href="#m15774b5e68" x="98.60875" y="141.319375" style="fill: #ffffff; stroke: #ffffff; stroke-width: 0.8"/>
      </g>
     </g>
     <g id="text_6">
      <!-- Bull -->
      <g style="fill: #a3b3bc" transform="translate(62.71125 144.630625) scale(0.12 -0.12)">
       <use xlink:href="#DejaVuSansMono-Bold-42"/>
       <use xlink:href="#DejaVuSansMono-Bold-75" transform="translate(60.205078 0)"/>
       <use xlink:href="#DejaVuSansMono-Bold-6c" transform="translate(120.410156 0)"/>
       <use xlink:href="#DejaVuSansMono-Bold-6c" transform="translate(180.615234 0)"/>
      </g>
     </g>
    </g>
    <g id="ytick_2">
     <g id="line2d_6">
      <g>
       <use xlink:href="#m15774b5e68" x="98.60875" y="219.779375" style="fill: #ffffff; stroke: #ffffff; stroke-width: 0.8"/>
      </g>
     </g>
     <g id="text_7">
      <!-- Bear -->
      <g style="fill: #a3b3bc" transform="translate(62.71125 223.090625) scale(0.12 -0.12)">
       <use xlink:href="#DejaVuSansMono-Bold-42"/>
       <use xlink:href="#DejaVuSansMono-Bold-65" transform="translate(60.205078 0)"/>
       <use xlink:href="#DejaVuSansMono-Bold-61" transform="translate(120.410156 0)"/>
       <use xlink:href="#DejaVuSansMono-Bold-72" transform="translate(180.615234 0)"/>
      </g>
     </g>
    </g>
    <g id="ytick_3">
     <g id="line2d_7">
      <g>
       <use xlink:href="#m15774b5e68" x="98.60875" y="298.239375" style="fill: #ffffff; stroke: #ffffff; stroke-width: 0.8"/>
      </g>
     </g>
     <g id="text_8">
      <!-- Mean Rev -->
      <g style="fill: #a3b3bc" transform="translate(33.81375 301.550625) scale(0.12 -0.12)">
       <use xlink:href="#DejaVuSansMono-Bold-4d"/>
       <use xlink:href="#DejaVuSansMono-Bold-65" transform="translate(60.205078 0)"/>
       <use xlink:href="#DejaVuSansMono-Bold-61" transform="translate(120.410156 0)"/>
       <use xlink:href="#DejaVuSansMono-Bold-6e" transform="translate(180.615234 0)"/>
       <use xlink:href="#DejaVuSansMono-Bold-20" transform="translate(240.820312 0)"/>
       <use xlink:href="#DejaVuSansMono-Bold-52" transform="translate(301.025391 0)"/>
       <use xlink:href="#DejaVuSansMono-Bold-65" transform="translate(361.230469 0)"/>
       <use xlink:href="#DejaVuSansMono-Bold-76" transform="translate(421.435547 0)"/>
      </g>
     </g>
    </g>
    <g id="ytick_4">
     <g id="line2d_8">
      <g>
       <use xlink:href="#m15774b5e68" x="98.60875" y="376.699375" style="fill: #ffffff; stroke: #ffffff; stroke-width: 0.8"/>
      </g>
     </g>
     <g id="text_9">
      <!-- Breakout -->
      <g style="fill: #a3b3bc" transform="translate(33.81375 380.010625) scale(0.12 -0.12)">
       <use xlink:href="#DejaVuSansMono-Bold-42"/>
       <use xlink:href="#DejaVuSansMono-Bold-72" transform="translate(60.205078 0)"/>
       <use xlink:href="#DejaVuSansMono-Bold-65" transform="translate(120.410156 0)"/>
       <use xlink:href="#DejaVuSansMono-Bold-61" transform="translate(180.615234 0)"/>
       <use xlink:href="#DejaVuSansMono-Bold-6b" transform="translate(240.820312 0)"/>
       <use xlink:href="#DejaVuSansMono-Bold-6f" transform="translate(301.025391 0)"/>
       <use xlink:href="#DejaVuSansMono-Bold-75" transform="translate(361.230469 0)"/>
       <use xlink:href="#DejaVuSansMono-Bold-74" transform="translate(421.435547 0)"/>
      </g>
     </g>
    </g>
    <g id="text_10">
     <!-- MODEL PREDICTION -->
     <g style="fill: #00ffcc" transform="translate(16.318125 316.804375) rotate(-90) scale(0.12 -0.12)">
      <defs>
       <path id="DejaVuSansMono-Bold-4f" d="M 1925 3922 
Q 1572 3922 1409 3545 
Q 1247 3169 1247 2328 
Q 1247 1491 1409 1114 
Q 1572 738 1925 738 
Q 2281 738 2443 1114 
Q 2606 1491 2606 2328 
Q 2606 3169 2443 3545 
Q 2281 3922 1925 3922 
z
M 288 2328 
Q 288 3525 702 4137 
Q 1116 4750 1925 4750 
Q 2738 4750 3152 4137 
Q 3566 3525 3566 2328 
Q 3566 1134 3152 521 
Q 2738 -91 1925 -91 
Q 1116 -91 702 521 
Q 288 1134 288 2328 
z
" transform="scale(0.015625)"/>
       <path id="DejaVuSansMono-Bold-44" d="M 1350 3834 
L 1350 831 
L 1600 831 
Q 2144 831 2375 1173 
Q 2606 1516 2606 2338 
Q 2606 3153 2375 3493 
Q 2144 3834 1600 3834 
L 1350 3834 
z
M 428 4666 
L 1416 4666 
Q 2559 4666 3062 4120 
Q 3566 3575 3566 2338 
Q 3566 1097 3062 548 
Q 2559 0 1416 0 
L 428 0 
L 428 4666 
z
" transform="scale(0.015625)"/>
       <path id="DejaVuSansMono-Bold-50" d="M 1428 3891 
L 1428 2522 
L 1806 2522 
Q 2259 2522 2442 2675 
Q 2625 2828 2625 3206 
Q 2625 3584 2442 3737 
Q 2259 3891 1806 3891 
L 1428 3891 
z
M 506 4666 
L 1772 4666 
Q 2738 4666 3161 4322 
Q 3584 3978 3584 3206 
Q 3584 2434 3161 2090 
Q 2738 1747 1772 1747 
L 1428 1747 
L 1428 0 
L 506 0 
L 506 4666 
z
" transform="scale(0.015625)"/>
       <path id="DejaVuSansMono-Bold-4e" d="M 372 4666 
L 1363 4666 
L 2663 1275 
L 2663 4666 
L 3475 4666 
L 3475 0 
L 2491 0 
L 1184 3391 
L 1184 0 
L 372 0 
L 372 4666 
z
" transform="scale(0.015625)"/>
      </defs>
      <use xlink:href="#DejaVuSansMono-Bold-4d"/>
      <use xlink:href="#DejaVuSansMono-Bold-4f" transform="translate(60.205078 0)"/>
      <use xlink:href="#DejaVuSansMono-Bold-44" transform="translate(120.410156 0)"/>
      <use xlink:href="#DejaVuSansMono-Bold-45" transform="translate(180.615234 0)"/>
      <use xlink:href="#DejaVuSansMono-Bold-4c" transform="translate(240.820312 0)"/>
      <use xlink:href="#DejaVuSansMono-Bold-20" transform="translate(301.025391 0)"/>
      <use xlink:href="#DejaVuSansMono-Bold-50" transform="translate(361.230469 0)"/>
      <use xlink:href="#DejaVuSansMono-Bold-52" transform="translate(421.435547 0)"/>
      <use xlink:href="#DejaVuSansMono-Bold-45" transform="translate(481.640625 0)"/>
      <use xlink:href="#DejaVuSansMono-Bold-44" transform="translate(541.845703 0)"/>
      <use xlink:href="#DejaVuSansMono-Bold-49" transform="translate(602.050781 0)"/>
      <use xlink:href="#DejaVuSansMono-Bold-43" transform="translate(662.255859 0)"/>
      <use xlink:href="#DejaVuSansMono-Bold-54" transform="translate(722.460938 0)"/>
      <use xlink:href="#DejaVuSansMono-Bold-49" transform="translate(782.666016 0)"/>
      <use xlink:href="#DejaVuSansMono-Bold-4f" transform="translate(842.871094 0)"/>
      <use xlink:href="#DejaVuSansMono-Bold-4e" transform="translate(903.076172 0)"/>
     </g>
    </g>
   </g>
   <g id="text_11">
    <!-- 0.92 -->
    <g style="fill: #ffffff" transform="translate(139.068438 145.1825) scale(0.14 -0.14)">
     <defs>
      <path id="DejaVuSans-Bold-30" d="M 2944 2338 
Q 2944 3213 2780 3570 
Q 2616 3928 2228 3928 
Q 1841 3928 1675 3570 
Q 1509 3213 1509 2338 
Q 1509 1453 1675 1090 
Q 1841 728 2228 728 
Q 2613 728 2778 1090 
Q 2944 1453 2944 2338 
z
M 4147 2328 
Q 4147 1169 3647 539 
Q 3147 -91 2228 -91 
Q 1306 -91 806 539 
Q 306 1169 306 2328 
Q 306 3491 806 4120 
Q 1306 4750 2228 4750 
Q 3147 4750 3647 4120 
Q 4147 3491 4147 2328 
z
" transform="scale(0.015625)"/>
      <path id="DejaVuSans-Bold-2e" d="M 653 1209 
L 1778 1209 
L 1778 0 
L 653 0 
L 653 1209 
z
" transform="scale(0.015625)"/>
      <path id="DejaVuSans-Bold-39" d="M 641 103 
L 641 966 
Q 928 831 1190 764 
Q 1453 697 1709 697 
Q 2247 697 2547 995 
Q 2847 1294 2900 1881 
Q 2688 1725 2447 1647 
Q 2206 1569 1925 1569 
Q 1209 1569 770 1986 
Q 331 2403 331 3084 
Q 331 3838 820 4291 
Q 1309 4744 2131 4744 
Q 3044 4744 3544 4128 
Q 4044 3513 4044 2388 
Q 4044 1231 3459 570 
Q 2875 -91 1856 -91 
Q 1528 -91 1228 -42 
Q 928 6 641 103 
z
M 2125 2350 
Q 2441 2350 2600 2554 
Q 2759 2759 2759 3169 
Q 2759 3575 2600 3781 
Q 2441 3988 2125 3988 
Q 1809 3988 1650 3781 
Q 1491 3575 1491 3169 
Q 1491 2759 1650 2554 
Q 1809 2350 2125 2350 
z
" transform="scale(0.015625)"/>
      <path id="DejaVuSans-Bold-32" d="M 1844 884 
L 3897 884 
L 3897 0 
L 506 0 
L 506 884 
L 2209 2388 
Q 2438 2594 2547 2791 
Q 2656 2988 2656 3200 
Q 2656 3528 2436 3728 
Q 2216 3928 1850 3928 
Q 1569 3928 1234 3808 
Q 900 3688 519 3450 
L 519 4475 
Q 925 4609 1322 4679 
Q 1719 4750 2100 4750 
Q 2938 4750 3402 4381 
Q 3866 4013 3866 3353 
Q 3866 2972 3669 2642 
Q 3472 2313 2841 1759 
L 1844 884 
z
" transform="scale(0.015625)"/>
     </defs>
     <use xlink:href="#DejaVuSans-Bold-30"/>
     <use xlink:href="#DejaVuSans-Bold-2e" transform="translate(69.580078 0)"/>
     <use xlink:href="#DejaVuSans-Bold-39" transform="translate(107.568359 0)"/>
     <use xlink:href="#DejaVuSans-Bold-32" transform="translate(177.148438 0)"/>
    </g>
   </g>
   <g id="text_12">
    <!-- 0.04 -->
    <g style="fill: #ffffff" transform="translate(254.528437 145.1825) scale(0.14 -0.14)">
     <defs>
      <path id="DejaVuSans-Bold-34" d="M 2356 3675 
L 1038 1722 
L 2356 1722 
L 2356 3675 
z
M 2156 4666 
L 3494 4666 
L 3494 1722 
L 4159 1722 
L 4159 850 
L 3494 850 
L 3494 0 
L 2356 0 
L 2356 850 
L 288 850 
L 288 1881 
L 2156 4666 
z
" transform="scale(0.015625)"/>
     </defs>
     <use xlink:href="#DejaVuSans-Bold-30"/>
     <use xlink:href="#DejaVuSans-Bold-2e" transform="translate(69.580078 0)"/>
     <use xlink:href="#DejaVuSans-Bold-30" transform="translate(107.568359 0)"/>
     <use xlink:href="#DejaVuSans-Bold-34" transform="translate(177.148438 0)"/>
    </g>
   </g>
   <g id="text_13">
    <!-- 0.01 -->
    <g style="fill: #ffffff" transform="translate(369.988437 145.1825) scale(0.14 -0.14)">
     <defs>
      <path id="DejaVuSans-Bold-31" d="M 750 831 
L 1813 831 
L 1813 3847 
L 722 3622 
L 722 4441 
L 1806 4666 
L 2950 4666 
L 2950 831 
L 4013 831 
L 4013 0 
L 750 0 
L 750 831 
z
" transform="scale(0.015625)"/>
     </defs>
     <use xlink:href="#DejaVuSans-Bold-30"/>
     <use xlink:href="#DejaVuSans-Bold-2e" transform="translate(69.580078 0)"/>
     <use xlink:href="#DejaVuSans-Bold-30" transform="translate(107.568359 0)"/>
     <use xlink:href="#DejaVuSans-Bold-31" transform="translate(177.148438 0)"/>
    </g>
   </g>
   <g id="text_14">
    <!-- 0.03 -->
    <g style="fill: #ffffff" transform="translate(485.448437 145.1825) scale(0.14 -0.14)">
     <defs>
      <path id="DejaVuSans-Bold-33" d="M 2981 2516 
Q 3453 2394 3698 2092 
Q 3944 1791 3944 1325 
Q 3944 631 3412 270 
Q 2881 -91 1863 -91 
Q 1503 -91 1142 -33 
Q 781 25 428 141 
L 428 1069 
Q 766 900 1098 814 
Q 1431 728 1753 728 
Q 2231 728 2486 893 
Q 2741 1059 2741 1369 
Q 2741 1688 2480 1852 
Q 2219 2016 1709 2016 
L 1228 2016 
L 1228 2791 
L 1734 2791 
Q 2188 2791 2409 2933 
Q 2631 3075 2631 3366 
Q 2631 3634 2415 3781 
Q 2200 3928 1806 3928 
Q 1516 3928 1219 3862 
Q 922 3797 628 3669 
L 628 4550 
Q 984 4650 1334 4700 
Q 1684 4750 2022 4750 
Q 2931 4750 3382 4451 
Q 3834 4153 3834 3553 
Q 3834 3144 3618 2883 
Q 3403 2622 2981 2516 
z
" transform="scale(0.015625)"/>
     </defs>
     <use xlink:href="#DejaVuSans-Bold-30"/>
     <use xlink:href="#DejaVuSans-Bold-2e" transform="translate(69.580078 0)"/>
     <use xlink:href="#DejaVuSans-Bold-30" transform="translate(107.568359 0)"/>
     <use xlink:href="#DejaVuSans-Bold-33" transform="translate(177.148438 0)"/>
    </g>
   </g>
   <g id="text_15">
    <!-- 0.05 -->
    <g style="fill: #ffffff" transform="translate(139.068438 223.6425) scale(0.14 -0.14)">
     <defs>
      <path id="DejaVuSans-Bold-35" d="M 678 4666 
L 3669 4666 
L 3669 3781 
L 1638 3781 
L 1638 3059 
Q 1775 3097 1914 3117 
Q 2053 3138 2203 3138 
Q 3056 3138 3531 2711 
Q 4006 2284 4006 1522 
Q 4006 766 3489 337 
Q 2972 -91 2053 -91 
Q 1656 -91 1267 -14 
Q 878 63 494 219 
L 494 1166 
Q 875 947 1217 837 
Q 1559 728 1863 728 
Q 2300 728 2551 942 
Q 2803 1156 2803 1522 
Q 2803 1891 2551 2103 
Q 2300 2316 1863 2316 
Q 1603 2316 1309 2248 
Q 1016 2181 678 2041 
L 678 4666 
z
" transform="scale(0.015625)"/>
     </defs>
     <use xlink:href="#DejaVuSans-Bold-30"/>
     <use xlink:href="#DejaVuSans-Bold-2e" transform="translate(69.580078 0)"/>
     <use xlink:href="#DejaVuSans-Bold-30" transform="translate(107.568359 0)"/>
     <use xlink:href="#DejaVuSans-Bold-35" transform="translate(177.148438 0)"/>
    </g>
   </g>
   <g id="text_16">
    <!-- 0.89 -->
    <g style="fill: #ffffff" transform="translate(254.528437 223.6425) scale(0.14 -0.14)">
     <defs>
      <path id="DejaVuSans-Bold-38" d="M 2228 2088 
Q 1891 2088 1709 1903 
Q 1528 1719 1528 1375 
Q 1528 1031 1709 848 
Q 1891 666 2228 666 
Q 2563 666 2741 848 
Q 2919 1031 2919 1375 
Q 2919 1722 2741 1905 
Q 2563 2088 2228 2088 
z
M 1350 2484 
Q 925 2613 709 2878 
Q 494 3144 494 3541 
Q 494 4131 934 4440 
Q 1375 4750 2228 4750 
Q 3075 4750 3515 4442 
Q 3956 4134 3956 3541 
Q 3956 3144 3739 2878 
Q 3522 2613 3097 2484 
Q 3572 2353 3814 2058 
Q 4056 1763 4056 1313 
Q 4056 619 3595 264 
Q 3134 -91 2228 -91 
Q 1319 -91 855 264 
Q 391 619 391 1313 
Q 391 1763 633 2058 
Q 875 2353 1350 2484 
z
M 1631 3419 
Q 1631 3141 1786 2991 
Q 1941 2841 2228 2841 
Q 2509 2841 2662 2991 
Q 2816 3141 2816 3419 
Q 2816 3697 2662 3845 
Q 2509 3994 2228 3994 
Q 1941 3994 1786 3844 
Q 1631 3694 1631 3419 
z
" transform="scale(0.015625)"/>
     </defs>
     <use xlink:href="#DejaVuSans-Bold-30"/>
     <use xlink:href="#DejaVuSans-Bold-2e" transform="translate(69.580078 0)"/>
     <use xlink:href="#DejaVuSans-Bold-38" transform="translate(107.568359 0)"/>
     <use xlink:href="#DejaVuSans-Bold-39" transform="translate(177.148438 0)"/>
    </g>
   </g>
   <g id="text_17">
    <!-- 0.04 -->
    <g style="fill: #ffffff" transform="translate(369.988437 223.6425) scale(0.14 -0.14)">
     <use xlink:href="#DejaVuSans-Bold-30"/>
     <use xlink:href="#DejaVuSans-Bold-2e" transform="translate(69.580078 0)"/>
     <use xlink:href="#DejaVuSans-Bold-30" transform="translate(107.568359 0)"/>
     <use xlink:href="#DejaVuSans-Bold-34" transform="translate(177.148438 0)"/>
    </g>
   </g>
   <g id="text_18">
    <!-- 0.02 -->
    <g style="fill: #ffffff" transform="translate(485.448437 223.6425) scale(0.14 -0.14)">
     <use xlink:href="#DejaVuSans-Bold-30"/>
     <use xlink:href="#DejaVuSans-Bold-2e" transform="translate(69.580078 0)"/>
     <use xlink:href="#DejaVuSans-Bold-30" transform="translate(107.568359 0)"/>
     <use xlink:href="#DejaVuSans-Bold-32" transform="translate(177.148438 0)"/>
    </g>
   </g>
   <g id="text_19">
    <!-- 0.02 -->
    <g style="fill: #ffffff" transform="translate(139.068438 302.1025) scale(0.14 -0.14)">
     <use xlink:href="#DejaVuSans-Bold-30"/>
     <use xlink:href="#DejaVuSans-Bold-2e" transform="translate(69.580078 0)"/>
     <use xlink:href="#DejaVuSans-Bold-30" transform="translate(107.568359 0)"/>
     <use xlink:href="#DejaVuSans-Bold-32" transform="translate(177.148438 0)"/>
    </g>
   </g>
   <g id="text_20">
    <!-- 0.03 -->
    <g style="fill: #ffffff" transform="translate(254.528437 302.1025) scale(0.14 -0.14)">
     <use xlink:href="#DejaVuSans-Bold-30"/>
     <use xlink:href="#DejaVuSans-Bold-2e" transform="translate(69.580078 0)"/>
     <use xlink:href="#DejaVuSans-Bold-30" transform="translate(107.568359 0)"/>
     <use xlink:href="#DejaVuSans-Bold-33" transform="translate(177.148438 0)"/>
    </g>
   </g>
   <g id="text_21">
    <!-- 0.94 -->
    <g style="fill: #ffffff" transform="translate(369.988437 302.1025) scale(0.14 -0.14)">
     <use xlink:href="#DejaVuSans-Bold-30"/>
     <use xlink:href="#DejaVuSans-Bold-2e" transform="translate(69.580078 0)"/>
     <use xlink:href="#DejaVuSans-Bold-39" transform="translate(107.568359 0)"/>
     <use xlink:href="#DejaVuSans-Bold-34" transform="translate(177.148438 0)"/>
    </g>
   </g>
   <g id="text_22">
    <!-- 0.01 -->
    <g style="fill: #ffffff" transform="translate(485.448437 302.1025) scale(0.14 -0.14)">
     <use xlink:href="#DejaVuSans-Bold-30"/>
     <use xlink:href="#DejaVuSans-Bold-2e" transform="translate(69.580078 0)"/>
     <use xlink:href="#DejaVuSans-Bold-30" transform="translate(107.568359 0)"/>
     <use xlink:href="#DejaVuSans-Bold-31" transform="translate(177.148438 0)"/>
    </g>
   </g>
   <g id="text_23">
    <!-- 0.08 -->
    <g style="fill: #ffffff" transform="translate(139.068438 380.5625) scale(0.14 -0.14)">
     <use xlink:href="#DejaVuSans-Bold-30"/>
     <use xlink:href="#DejaVuSans-Bold-2e" transform="translate(69.580078 0)"/>
     <use xlink:href="#DejaVuSans-Bold-30" transform="translate(107.568359 0)"/>
     <use xlink:href="#DejaVuSans-Bold-38" transform="translate(177.148438 0)"/>
    </g>
   </g>
   <g id="text_24">
    <!-- 0.02 -->
    <g style="fill: #ffffff" transform="translate(254.528437 380.5625) scale(0.14 -0.14)">
     <use xlink:href="#DejaVuSans-Bold-30"/>
     <use xlink:href="#DejaVuSans-Bold-2e" transform="translate(69.580078 0)"/>
     <use xlink:href="#DejaVuSans-Bold-30" transform="translate(107.568359 0)"/>
     <use xlink:href="#DejaVuSans-Bold-32" transform="translate(177.148438 0)"/>
    </g>
   </g>
   <g id="text_25">
    <!-- 0.05 -->
    <g style="fill: #ffffff" transform="translate(369.988437 380.5625) scale(0.14 -0.14)">
     <use xlink:href="#DejaVuSans-Bold-30"/>
     <use xlink:href="#DejaVuSans-Bold-2e" transform="translate(69.580078 0)"/>
     <use xlink:href="#DejaVuSans-Bold-30" transform="translate(107.568359 0)"/>
     <use xlink:href="#DejaVuSans-Bold-35" transform="translate(177.148438 0)"/>
    </g>
   </g>
   <g id="text_26">
    <!-- 0.85 -->
    <g style="fill: #ffffff" transform="translate(485.448437 380.5625) scale(0.14 -0.14)">
     <use xlink:href="#DejaVuSans-Bold-30"/>
     <use xlink:href="#DejaVuSans-Bold-2e" transform="translate(69.580078 0)"/>
     <use xlink:href="#DejaVuSans-Bold-38" transform="translate(107.568359 0)"/>
     <use xlink:href="#DejaVuSans-Bold-35" transform="translate(177.148438 0)"/>
    </g>
   </g>
   <g id="text_27">
    <!-- SYSTEM STATUS: ONLINE -->
    <g style="fill: #00ffcc" transform="translate(40.87875 62.664938) scale(0.1 -0.1)">
     <defs>
      <path id="DejaVuSansMono-53" d="M 3163 4506 
L 3163 3866 
Q 2875 4050 2586 4144 
Q 2297 4238 2003 4238 
Q 1556 4238 1297 4030 
Q 1038 3822 1038 3469 
Q 1038 3159 1208 2996 
Q 1378 2834 1844 2725 
L 2175 2650 
Q 2831 2497 3131 2169 
Q 3431 1841 3431 1275 
Q 3431 609 3018 259 
Q 2606 -91 1819 -91 
Q 1491 -91 1159 -20 
Q 828 50 494 191 
L 494 863 
Q 853 634 1173 528 
Q 1494 422 1819 422 
Q 2297 422 2562 636 
Q 2828 850 2828 1234 
Q 2828 1584 2645 1768 
Q 2463 1953 2009 2053 
L 1672 2131 
Q 1022 2278 728 2575 
Q 434 2872 434 3372 
Q 434 3997 854 4373 
Q 1275 4750 1972 4750 
Q 2241 4750 2537 4689 
Q 2834 4628 3163 4506 
z
" transform="scale(0.015625)"/>
      <path id="DejaVuSansMono-59" d="M 116 4666 
L 788 4666 
L 1925 2606 
L 3059 4666 
L 3738 4666 
L 2241 2094 
L 2241 0 
L 1606 0 
L 1606 2094 
L 116 4666 
z
" transform="scale(0.015625)"/>
      <path id="DejaVuSansMono-54" d="M 147 4666 
L 3706 4666 
L 3706 4134 
L 2247 4134 
L 2247 0 
L 1613 0 
L 1613 4134 
L 147 4134 
L 147 4666 
z
" transform="scale(0.015625)"/>
      <path id="DejaVuSansMono-45" d="M 616 4666 
L 3384 4666 
L 3384 4134 
L 1247 4134 
L 1247 2753 
L 3291 2753 
L 3291 2222 
L 1247 2222 
L 1247 531 
L 3444 531 
L 3444 0 
L 616 0 
L 616 4666 
z
" transform="scale(0.015625)"/>
      <path id="DejaVuSansMono-4d" d="M 269 4666 
L 1113 4666 
L 1919 2291 
L 2731 4666 
L 3578 4666 
L 3578 0 
L 2994 0 
L 2994 4122 
L 2163 1663 
L 1684 1663 
L 850 4122 
L 850 0 
L 269 0 
L 269 4666 
z
" transform="scale(0.015625)"/>
      <path id="DejaVuSansMono-20" transform="scale(0.015625)"/>
      <path id="DejaVuSansMono-41" d="M 1925 4109 
L 1259 1722 
L 2591 1722 
L 1925 4109 
z
M 1544 4666 
L 2309 4666 
L 3738 0 
L 3084 0 
L 2741 1216 
L 1106 1216 
L 769 0 
L 116 0 
L 1544 4666 
z
" transform="scale(0.015625)"/>
      <path id="DejaVuSansMono-55" d="M 459 1791 
L 459 4666 
L 1094 4666 
L 1094 1503 
Q 1094 1163 1112 1017 
Q 1131 872 1178 794 
Q 1278 609 1467 515 
Q 1656 422 1925 422 
Q 2197 422 2384 515 
Q 2572 609 2675 794 
Q 2722 872 2740 1015 
Q 2759 1159 2759 1497 
L 2759 4666 
L 3391 4666 
L 3391 1791 
Q 3391 1075 3302 773 
Q 3213 472 2994 275 
Q 2788 91 2522 0 
Q 2256 -91 1925 -91 
Q 1597 -91 1331 0 
Q 1066 91 856 275 
Q 641 469 550 776 
Q 459 1084 459 1791 
z
" transform="scale(0.015625)"/>
      <path id="DejaVuSansMono-3a" d="M 1528 3322 
L 2316 3322 
L 2316 2375 
L 1528 2375 
L 1528 3322 
z
M 1528 953 
L 2316 953 
L 2316 0 
L 1528 0 
L 1528 953 
z
" transform="scale(0.015625)"/>
      <path id="DejaVuSansMono-4f" d="M 2828 2328 
Q 2828 3356 2617 3797 
Q 2406 4238 1925 4238 
Q 1447 4238 1236 3797 
Q 1025 3356 1025 2328 
Q 1025 1303 1236 862 
Q 1447 422 1925 422 
Q 2406 422 2617 861 
Q 2828 1300 2828 2328 
z
M 3488 2328 
Q 3488 1109 3102 509 
Q 2716 -91 1925 -91 
Q 1134 -91 750 506 
Q 366 1103 366 2328 
Q 366 3550 752 4150 
Q 1138 4750 1925 4750 
Q 2716 4750 3102 4150 
Q 3488 3550 3488 2328 
z
" transform="scale(0.015625)"/>
      <path id="DejaVuSansMono-4e" d="M 434 4666 
L 1234 4666 
L 2809 825 
L 2809 4666 
L 3419 4666 
L 3419 0 
L 2619 0 
L 1044 3841 
L 1044 0 
L 434 0 
L 434 4666 
z
" transform="scale(0.015625)"/>
      <path id="DejaVuSansMono-4c" d="M 672 4666 
L 1306 4666 
L 1306 531 
L 3559 531 
L 3559 0 
L 672 0 
L 672 4666 
z
" transform="scale(0.015625)"/>
      <path id="DejaVuSansMono-49" d="M 628 4666 
L 3219 4666 
L 3219 4134 
L 2241 4134 
L 2241 531 
L 3219 531 
L 3219 0 
L 628 0 
L 628 531 
L 1606 531 
L 1606 4134 
L 628 4134 
L 628 4666 
z
" transform="scale(0.015625)"/>
     </defs>
     <use xlink:href="#DejaVuSansMono-53"/>
     <use xlink:href="#DejaVuSansMono-59" transform="translate(60.205078 0)"/>
     <use xlink:href="#DejaVuSansMono-53" transform="translate(120.410156 0)"/>
     <use xlink:href="#DejaVuSansMono-54" transform="translate(180.615234 0)"/>
     <use xlink:href="#DejaVuSansMono-45" transform="translate(240.820312 0)"/>
     <use xlink:href="#DejaVuSansMono-4d" transform="translate(301.025391 0)"/>
     <use xlink:href="#DejaVuSansMono-20" transform="translate(361.230469 0)"/>
     <use xlink:href="#DejaVuSansMono-53" transform="translate(421.435547 0)"/>
     <use xlink:href="#DejaVuSansMono-54" transform="translate(481.640625 0)"/>
     <use xlink:href="#DejaVuSansMono-41" transform="translate(541.845703 0)"/>
     <use xlink:href="#DejaVuSansMono-54" transform="translate(602.050781 0)"/>
     <use xlink:href="#DejaVuSansMono-55" transform="translate(662.255859 0)"/>
     <use xlink:href="#DejaVuSansMono-53" transform="translate(722.460938 0)"/>
     <use xlink:href="#DejaVuSansMono-3a" transform="translate(782.666016 0)"/>
     <use xlink:href="#DejaVuSansMono-20" transform="translate(842.871094 0)"/>
     <use xlink:href="#DejaVuSansMono-4f" transform="translate(903.076172 0)"/>
     <use xlink:href="#DejaVuSansMono-4e" transform="translate(963.28125 0)"/>
     <use xlink:href="#DejaVuSansMono-4c" transform="translate(1023.486328 0)"/>
     <use xlink:href="#DejaVuSansMono-49" transform="translate(1083.691406 0)"/>
     <use xlink:href="#DejaVuSansMono-4e" transform="translate(1143.896484 0)"/>
     <use xlink:href="#DejaVuSansMono-45" transform="translate(1204.101562 0)"/>
    </g>
    <!-- BACKBONE: MobileNetV2 | FRAMEWORK: TensorFlow/Keras -->
    <g style="fill: #00ffcc" transform="translate(40.87875 73.9265) scale(0.1 -0.1)">
     <defs>
      <path id="DejaVuSansMono-42" d="M 1153 2228 
L 1153 519 
L 1900 519 
Q 2450 519 2684 711 
Q 2919 903 2919 1344 
Q 2919 1800 2672 2014 
Q 2425 2228 1900 2228 
L 1153 2228 
z
M 1153 4147 
L 1153 2741 
L 1888 2741 
Q 2344 2741 2548 2916 
Q 2753 3091 2753 3481 
Q 2753 3834 2551 3990 
Q 2350 4147 1888 4147 
L 1153 4147 
z
M 519 4666 
L 1900 4666 
Q 2616 4666 3003 4356 
Q 3391 4047 3391 3481 
Q 3391 3053 3186 2806 
Q 2981 2559 2572 2497 
Q 3031 2428 3292 2104 
Q 3553 1781 3553 1281 
Q 3553 647 3137 323 
Q 2722 0 1900 0 
L 519 0 
L 519 4666 
z
" transform="scale(0.015625)"/>
      <path id="DejaVuSansMono-43" d="M 3353 166 
Q 3113 38 2859 -26 
Q 2606 -91 2322 -91 
Q 1425 -91 929 543 
Q 434 1178 434 2328 
Q 434 3472 932 4111 
Q 1431 4750 2322 4750 
Q 2606 4750 2859 4686 
Q 3113 4622 3353 4494 
L 3353 3847 
Q 3122 4038 2856 4138 
Q 2591 4238 2322 4238 
Q 1706 4238 1400 3763 
Q 1094 3288 1094 2328 
Q 1094 1372 1400 897 
Q 1706 422 2322 422 
Q 2597 422 2861 522 
Q 3125 622 3353 813 
L 3353 166 
z
" transform="scale(0.015625)"/>
      <path id="DejaVuSansMono-4b" d="M 428 4666 
L 1063 4666 
L 1063 2591 
L 3034 4666 
L 3775 4666 
L 1959 2759 
L 3828 0 
L 3066 0 
L 1544 2338 
L 1063 1825 
L 1063 0 
L 428 0 
L 428 4666 
z
" transform="scale(0.015625)"/>
      <path id="DejaVuSansMono-6f" d="M 1925 3097 
Q 1488 3097 1263 2756 
Q 1038 2416 1038 1747 
Q 1038 1081 1263 739 
Q 1488 397 1925 397 
Q 2366 397 2591 739 
Q 2816 1081 2816 1747 
Q 2816 2416 2591 2756 
Q 2366 3097 1925 3097 
z
M 1925 3584 
Q 2653 3584 3039 3112 
Q 3425 2641 3425 1747 
Q 3425 850 3040 379 
Q 2656 -91 1925 -91 
Q 1197 -91 812 379 
Q 428 850 428 1747 
Q 428 2641 812 3112 
Q 1197 3584 1925 3584 
z
" transform="scale(0.015625)"/>
      <path id="DejaVuSansMono-62" d="M 2869 1747 
Q 2869 2416 2656 2756 
Q 2444 3097 2028 3097 
Q 1609 3097 1393 2755 
Q 1178 2413 1178 1747 
Q 1178 1084 1393 740 
Q 1609 397 2028 397 
Q 2444 397 2656 737 
Q 2869 1078 2869 1747 
z
M 1178 3053 
Q 1316 3309 1558 3446 
Q 1800 3584 2119 3584 
Q 2750 3584 3112 3098 
Q 3475 2613 3475 1759 
Q 3475 894 3111 401 
Q 2747 -91 2113 -91 
Q 1800 -91 1561 45 
Q 1322 181 1178 441 
L 1178 0 
L 603 0 
L 603 4863 
L 1178 4863 
L 1178 3053 
z
" transform="scale(0.015625)"/>
      <path id="DejaVuSansMono-69" d="M 800 3500 
L 2272 3500 
L 2272 447 
L 3413 447 
L 3413 0 
L 556 0 
L 556 447 
L 1697 447 
L 1697 3053 
L 800 3053 
L 800 3500 
z
M 1697 4863 
L 2272 4863 
L 2272 4134 
L 1697 4134 
L 1697 4863 
z
" transform="scale(0.015625)"/>
      <path id="DejaVuSansMono-6c" d="M 1997 1269 
Q 1997 881 2139 684 
Q 2281 488 2559 488 
L 3231 488 
L 3231 0 
L 2503 0 
Q 1988 0 1705 331 
Q 1422 663 1422 1269 
L 1422 4447 
L 500 4447 
L 500 4897 
L 1997 4897 
L 1997 1269 
z
" transform="scale(0.015625)"/>
      <path id="DejaVuSansMono-65" d="M 3475 1894 
L 3475 1613 
L 984 1613 
L 984 1594 
Q 984 1022 1282 709 
Q 1581 397 2125 397 
Q 2400 397 2700 484 
Q 3000 572 3341 750 
L 3341 178 
Q 3013 44 2708 -23 
Q 2403 -91 2119 -91 
Q 1303 -91 843 398 
Q 384 888 384 1747 
Q 384 2584 834 3084 
Q 1284 3584 2034 3584 
Q 2703 3584 3089 3131 
Q 3475 2678 3475 1894 
z
M 2900 2063 
Q 2888 2569 2661 2833 
Q 2434 3097 2009 3097 
Q 1594 3097 1325 2822 
Q 1056 2547 1006 2059 
L 2900 2063 
z
" transform="scale(0.015625)"/>
      <path id="DejaVuSansMono-74" d="M 1919 4494 
L 1919 3500 
L 3225 3500 
L 3225 3053 
L 1919 3053 
L 1919 1153 
Q 1919 766 2066 612 
Q 2213 459 2578 459 
L 3225 459 
L 3225 0 
L 2522 0 
Q 1875 0 1609 259 
Q 1344 519 1344 1153 
L 1344 3053 
L 409 3053 
L 409 3500 
L 1344 3500 
L 1344 4494 
L 1919 4494 
z
" transform="scale(0.015625)"/>
      <path id="DejaVuSansMono-56" d="M 1925 531 
L 3022 4666 
L 3675 4666 
L 2309 0 
L 1544 0 
L 178 4666 
L 831 4666 
L 1925 531 
z
" transform="scale(0.015625)"/>
      <path id="DejaVuSansMono-32" d="M 1166 531 
L 3309 531 
L 3309 0 
L 475 0 
L 475 531 
Q 1059 1147 1496 1619 
Q 1934 2091 2100 2284 
Q 2413 2666 2522 2902 
Q 2631 3138 2631 3384 
Q 2631 3775 2401 3997 
Q 2172 4219 1772 4219 
Q 1488 4219 1175 4116 
Q 863 4013 513 3803 
L 513 4441 
Q 834 4594 1145 4672 
Q 1456 4750 1759 4750 
Q 2444 4750 2861 4386 
Q 3278 4022 3278 3431 
Q 3278 3131 3139 2831 
Q 3000 2531 2688 2169 
Q 2513 1966 2180 1606 
Q 1847 1247 1166 531 
z
" transform="scale(0.015625)"/>
      <path id="DejaVuSansMono-7c" d="M 2194 4891 
L 2194 -1509 
L 1656 -1509 
L 1656 4891 
L 2194 4891 
z
" transform="scale(0.015625)"/>
      <path id="DejaVuSansMono-46" d="M 728 4666 
L 3475 4666 
L 3475 4134 
L 1363 4134 
L 1363 2759 
L 3278 2759 
L 3278 2228 
L 1363 2228 
L 1363 0 
L 728 0 
L 728 4666 
z
" transform="scale(0.015625)"/>
      <path id="DejaVuSansMono-52" d="M 2375 2203 
Q 2619 2141 2791 1967 
Q 2963 1794 3219 1275 
L 3853 0 
L 3175 0 
L 2619 1178 
Q 2378 1681 2186 1826 
Q 1994 1972 1684 1972 
L 1081 1972 
L 1081 0 
L 447 0 
L 447 4666 
L 1747 4666 
Q 2516 4666 2925 4319 
Q 3334 3972 3334 3316 
Q 3334 2853 3082 2561 
Q 2831 2269 2375 2203 
z
M 1081 4147 
L 1081 2491 
L 1772 2491 
Q 2225 2491 2447 2694 
Q 2669 2897 2669 3316 
Q 2669 3719 2433 3933 
Q 2197 4147 1747 4147 
L 1081 4147 
z
" transform="scale(0.015625)"/>
      <path id="DejaVuSansMono-57" d="M 0 4666 
L 616 4666 
L 1063 878 
L 1594 3384 
L 2253 3384 
L 2791 872 
L 3238 4666 
L 3853 4666 
L 3156 0 
L 2559 0 
L 1925 2772 
L 1294 0 
L 697 0 
L 0 4666 
z
" transform="scale(0.015625)"/>
      <path id="DejaVuSansMono-6e" d="M 3284 2169 
L 3284 0 
L 2706 0 
L 2706 2169 
Q 2706 2641 2540 2862 
Q 2375 3084 2022 3084 
Q 1619 3084 1401 2798 
Q 1184 2513 1184 1978 
L 1184 0 
L 609 0 
L 609 3500 
L 1184 3500 
L 1184 2975 
Q 1338 3275 1600 3429 
Q 1863 3584 2222 3584 
Q 2756 3584 3020 3232 
Q 3284 2881 3284 2169 
z
" transform="scale(0.015625)"/>
      <path id="DejaVuSansMono-73" d="M 3041 3378 
L 3041 2816 
Q 2794 2959 2544 3031 
Q 2294 3103 2034 3103 
Q 1644 3103 1451 2976 
Q 1259 2850 1259 2591 
Q 1259 2356 1403 2240 
Q 1547 2125 2119 2016 
L 2350 1972 
Q 2778 1891 2998 1647 
Q 3219 1403 3219 1013 
Q 3219 494 2850 201 
Q 2481 -91 1825 -91 
Q 1566 -91 1281 -36 
Q 997 19 666 128 
L 666 722 
Q 988 556 1281 473 
Q 1575 391 1838 391 
Q 2219 391 2428 545 
Q 2638 700 2638 978 
Q 2638 1378 1872 1531 
L 1847 1538 
L 1631 1581 
Q 1134 1678 906 1908 
Q 678 2138 678 2534 
Q 678 3038 1018 3311 
Q 1359 3584 1991 3584 
Q 2272 3584 2531 3532 
Q 2791 3481 3041 3378 
z
" transform="scale(0.015625)"/>
      <path id="DejaVuSansMono-72" d="M 3609 2778 
Q 3425 2922 3234 2987 
Q 3044 3053 2816 3053 
Q 2278 3053 1993 2715 
Q 1709 2378 1709 1741 
L 1709 0 
L 1131 0 
L 1131 3500 
L 1709 3500 
L 1709 2816 
Q 1853 3188 2151 3386 
Q 2450 3584 2859 3584 
Q 3072 3584 3256 3531 
Q 3441 3478 3609 3366 
L 3609 2778 
z
" transform="scale(0.015625)"/>
      <path id="DejaVuSansMono-77" d="M 0 3500 
L 569 3500 
L 1178 672 
L 1678 2478 
L 2169 2478 
L 2675 672 
L 3284 3500 
L 3853 3500 
L 3034 0 
L 2484 0 
L 1925 1919 
L 1369 0 
L 819 0 
L 0 3500 
z
" transform="scale(0.015625)"/>
      <path id="DejaVuSansMono-2f" d="M 2778 4666 
L 3372 4666 
L 916 -594 
L 319 -594 
L 2778 4666 
z
" transform="scale(0.015625)"/>
      <path id="DejaVuSansMono-61" d="M 2194 1759 
L 2003 1759 
Q 1500 1759 1245 1582 
Q 991 1406 991 1056 
Q 991 741 1181 566 
Q 1372 391 1709 391 
Q 2184 391 2456 720 
Q 2728 1050 2731 1631 
L 2731 1759 
L 2194 1759 
z
M 3309 1997 
L 3309 0 
L 2731 0 
L 2731 519 
Q 2547 206 2267 57 
Q 1988 -91 1588 -91 
Q 1053 -91 734 211 
Q 416 513 416 1019 
Q 416 1603 808 1906 
Q 1200 2209 1959 2209 
L 2731 2209 
L 2731 2300 
Q 2728 2719 2518 2908 
Q 2309 3097 1850 3097 
Q 1556 3097 1256 3012 
Q 956 2928 672 2766 
L 672 3341 
Q 991 3463 1283 3523 
Q 1575 3584 1850 3584 
Q 2284 3584 2592 3456 
Q 2900 3328 3091 3072 
Q 3209 2916 3259 2686 
Q 3309 2456 3309 1997 
z
" transform="scale(0.015625)"/>
     </defs>
     <use xlink:href="#DejaVuSansMono-42"/>
     <use xlink:href="#DejaVuSansMono-41" transform="translate(60.205078 0)"/>
     <use xlink:href="#DejaVuSansMono-43" transform="translate(120.410156 0)"/>
     <use xlink:href="#DejaVuSansMono-4b" transform="translate(180.615234 0)"/>
     <use xlink:href="#DejaVuSansMono-42" transform="translate(240.820312 0)"/>
     <use xlink:href="#DejaVuSansMono-4f" transform="translate(301.025391 0)"/>
     <use xlink:href="#DejaVuSansMono-4e" transform="translate(361.230469 0)"/>
     <use xlink:href="#DejaVuSansMono-45" transform="translate(421.435547 0)"/>
     <use xlink:href="#DejaVuSansMono-3a" transform="translate(481.640625 0)"/>
     <use xlink:href="#DejaVuSansMono-20" transform="translate(541.845703 0)"/>
     <use xlink:href="#DejaVuSansMono-4d" transform="translate(602.050781 0)"/>
     <use xlink:href="#DejaVuSansMono-6f" transform="translate(662.255859 0)"/>
     <use xlink:href="#DejaVuSansMono-62" transform="translate(722.460938 0)"/>
     <use xlink:href="#DejaVuSansMono-69" transform="translate(782.666016 0)"/>
     <use xlink:href="#DejaVuSansMono-6c" transform="translate(842.871094 0)"/>
     <use xlink:href="#DejaVuSansMono-65" transform="translate(903.076172 0)"/>
     <use xlink:href="#DejaVuSansMono-4e" transform="translate(963.28125 0)"/>
     <use xlink:href="#DejaVuSansMono-65" transform="translate(1023.486328 0)"/>
     <use xlink:href="#DejaVuSansMono-74" transform="translate(1083.691406 0)"/>
     <use xlink:href="#DejaVuSansMono-56" transform="translate(1143.896484 0)"/>
     <use xlink:href="#DejaVuSansMono-32" transform="translate(1204.101562 0)"/>
     <use xlink:href="#DejaVuSansMono-20" transform="translate(1264.306641 0)"/>
     <use xlink:href="#DejaVuSansMono-7c" transform="translate(1324.511719 0)"/>
     <use xlink:href="#DejaVuSansMono-20" transform="translate(1384.716797 0)"/>
     <use xlink:href="#DejaVuSansMono-46" transform="translate(1444.921875 0)"/>
     <use xlink:href="#DejaVuSansMono-52" transform="translate(1505.126953 0)"/>
     <use xlink:href="#DejaVuSansMono-41" transform="translate(1565.332031 0)"/>
     <use xlink:href="#DejaVuSansMono-4d" transform="translate(1625.537109 0)"/>
     <use xlink:href="#DejaVuSansMono-45" transform="translate(1685.742188 0)"/>
     <use xlink:href="#DejaVuSansMono-57" transform="translate(1745.947266 0)"/>
     <use xlink:href="#DejaVuSansMono-4f" transform="translate(1806.152344 0)"/>
     <use xlink:href="#DejaVuSansMono-52" transform="translate(1866.357422 0)"/>
     <use xlink:href="#DejaVuSansMono-4b" transform="translate(1926.5625 0)"/>
     <use xlink:href="#DejaVuSansMono-3a" transform="translate(1986.767578 0)"/>
     <use xlink:href="#DejaVuSansMono-20" transform="translate(2046.972656 0)"/>
     <use xlink:href="#DejaVuSansMono-54" transform="translate(2107.177734 0)"/>
     <use xlink:href="#DejaVuSansMono-65" transform="translate(2167.382812 0)"/>
     <use xlink:href="#DejaVuSansMono-6e" transform="translate(2227.587891 0)"/>
     <use xlink:href="#DejaVuSansMono-73" transform="translate(2287.792969 0)"/>
     <use xlink:href="#DejaVuSansMono-6f" transform="translate(2347.998047 0)"/>
     <use xlink:href="#DejaVuSansMono-72" transform="translate(2408.203125 0)"/>
     <use xlink:href="#DejaVuSansMono-46" transform="translate(2468.408203 0)"/>
     <use xlink:href="#DejaVuSansMono-6c" transform="translate(2528.613281 0)"/>
     <use xlink:href="#DejaVuSansMono-6f" transform="translate(2588.818359 0)"/>
     <use xlink:href="#DejaVuSansMono-77" transform="translate(2649.023438 0)"/>
     <use xlink:href="#DejaVuSansMono-2f" transform="translate(2709.228516 0)"/>
     <use xlink:href="#DejaVuSansMono-4b" transform="translate(2769.433594 0)"/>
     <use xlink:href="#DejaVuSansMono-65" transform="translate(2829.638672 0)"/>
     <use xlink:href="#DejaVuSansMono-72" transform="translate(2889.84375 0)"/>
     <use xlink:href="#DejaVuSansMono-61" transform="translate(2950.048828 0)"/>
     <use xlink:href="#DejaVuSansMono-73" transform="translate(3010.253906 0)"/>
    </g>
    <!-- STRATEGY: Multi-Factor NLP + Vision Pipeline -->
    <g style="fill: #00ffcc" transform="translate(40.87875 85.466187) scale(0.1 -0.1)">
     <defs>
      <path id="DejaVuSansMono-47" d="M 3450 384 
Q 3197 150 2880 29 
Q 2563 -91 2194 -91 
Q 1306 -91 812 545 
Q 319 1181 319 2328 
Q 319 3472 819 4111 
Q 1319 4750 2209 4750 
Q 2503 4750 2772 4667 
Q 3041 4584 3291 4416 
L 3291 3769 
Q 3038 4009 2772 4123 
Q 2506 4238 2209 4238 
Q 1594 4238 1286 3761 
Q 978 3284 978 2328 
Q 978 1356 1276 889 
Q 1575 422 2194 422 
Q 2403 422 2561 470 
Q 2719 519 2847 622 
L 2847 1875 
L 2169 1875 
L 2169 2394 
L 3450 2394 
L 3450 384 
z
" transform="scale(0.015625)"/>
      <path id="DejaVuSansMono-75" d="M 609 1325 
L 609 3494 
L 1184 3494 
L 1184 1325 
Q 1184 853 1351 631 
Q 1519 409 1869 409 
Q 2275 409 2490 695 
Q 2706 981 2706 1516 
L 2706 3494 
L 3284 3494 
L 3284 0 
L 2706 0 
L 2706 525 
Q 2553 222 2289 65 
Q 2025 -91 1672 -91 
Q 1134 -91 871 261 
Q 609 613 609 1325 
z
" transform="scale(0.015625)"/>
      <path id="DejaVuSansMono-2d" d="M 1113 2009 
L 2741 2009 
L 2741 1497 
L 1113 1497 
L 1113 2009 
z
" transform="scale(0.015625)"/>
      <path id="DejaVuSansMono-63" d="M 3316 178 
Q 3084 44 2839 -23 
Q 2594 -91 2338 -91 
Q 1525 -91 1067 396 
Q 609 884 609 1747 
Q 609 2609 1067 3096 
Q 1525 3584 2338 3584 
Q 2591 3584 2831 3518 
Q 3072 3453 3316 3316 
L 3316 2713 
Q 3088 2916 2858 3006 
Q 2628 3097 2338 3097 
Q 1797 3097 1506 2747 
Q 1216 2397 1216 1747 
Q 1216 1100 1508 748 
Q 1800 397 2338 397 
Q 2638 397 2875 489 
Q 3113 581 3316 775 
L 3316 178 
z
" transform="scale(0.015625)"/>
      <path id="DejaVuSansMono-50" d="M 1247 4147 
L 1247 2394 
L 1978 2394 
Q 2416 2394 2661 2625 
Q 2906 2856 2906 3272 
Q 2906 3688 2662 3917 
Q 2419 4147 1978 4147 
L 1247 4147 
z
M 616 4666 
L 1978 4666 
Q 2759 4666 3162 4311 
Q 3566 3956 3566 3272 
Q 3566 2581 3164 2228 
Q 2763 1875 1978 1875 
L 1247 1875 
L 1247 0 
L 616 0 
L 616 4666 
z
" transform="scale(0.015625)"/>
      <path id="DejaVuSansMono-2b" d="M 2188 3659 
L 2188 2272 
L 3578 2272 
L 3578 1741 
L 2188 1741 
L 2188 353 
L 1663 353 
L 1663 1741 
L 275 1741 
L 275 2272 
L 1663 2272 
L 1663 3659 
L 2188 3659 
z
" transform="scale(0.015625)"/>
      <path id="DejaVuSansMono-70" d="M 1172 441 
L 1172 -1331 
L 594 -1331 
L 594 3500 
L 1172 3500 
L 1172 3053 
Q 1316 3313 1555 3448 
Q 1794 3584 2106 3584 
Q 2741 3584 3102 3093 
Q 3463 2603 3463 1734 
Q 3463 881 3100 395 
Q 2738 -91 2106 -91 
Q 1788 -91 1548 45 
Q 1309 181 1172 441 
z
M 2859 1747 
Q 2859 2416 2648 2756 
Q 2438 3097 2022 3097 
Q 1603 3097 1387 2755 
Q 1172 2413 1172 1747 
Q 1172 1084 1387 740 
Q 1603 397 2022 397 
Q 2438 397 2648 737 
Q 2859 1078 2859 1747 
z
" transform="scale(0.015625)"/>
     </defs>
     <use xlink:href="#DejaVuSansMono-53"/>
     <use xlink:href="#DejaVuSansMono-54" transform="translate(60.205078 0)"/>
     <use xlink:href="#DejaVuSansMono-52" transform="translate(120.410156 0)"/>
     <use xlink:href="#DejaVuSansMono-41" transform="translate(180.615234 0)"/>
     <use xlink:href="#DejaVuSansMono-54" transform="translate(240.820312 0)"/>
     <use xlink:href="#DejaVuSansMono-45" transform="translate(301.025391 0)"/>
     <use xlink:href="#DejaVuSansMono-47" transform="translate(361.230469 0)"/>
     <use xlink:href="#DejaVuSansMono-59" transform="translate(421.435547 0)"/>
     <use xlink:href="#DejaVuSansMono-3a" transform="translate(481.640625 0)"/>
     <use xlink:href="#DejaVuSansMono-20" transform="translate(541.845703 0)"/>
     <use xlink:href="#DejaVuSansMono-4d" transform="translate(602.050781 0)"/>
     <use xlink:href="#DejaVuSansMono-75" transform="translate(662.255859 0)"/>
     <use xlink:href="#DejaVuSansMono-6c" transform="translate(722.460938 0)"/>
     <use xlink:href="#DejaVuSansMono-74" transform="translate(782.666016 0)"/>
     <use xlink:href="#DejaVuSansMono-69" transform="translate(842.871094 0)"/>
     <use xlink:href="#DejaVuSansMono-2d" transform="translate(903.076172 0)"/>
     <use xlink:href="#DejaVuSansMono-46" transform="translate(963.28125 0)"/>
     <use xlink:href="#DejaVuSansMono-61" transform="translate(1023.486328 0)"/>
     <use xlink:href="#DejaVuSansMono-63" transform="translate(1083.691406 0)"/>
     <use xlink:href="#DejaVuSansMono-74" transform="translate(1143.896484 0)"/>
     <use xlink:href="#DejaVuSansMono-6f" transform="translate(1204.101562 0)"/>
     <use xlink:href="#DejaVuSansMono-72" transform="translate(1264.306641 0)"/>
     <use xlink:href="#DejaVuSansMono-20" transform="translate(1324.511719 0)"/>
     <use xlink:href="#DejaVuSansMono-4e" transform="translate(1384.716797 0)"/>
     <use xlink:href="#DejaVuSansMono-4c" transform="translate(1444.921875 0)"/>
     <use xlink:href="#DejaVuSansMono-50" transform="translate(1505.126953 0)"/>
     <use xlink:href="#DejaVuSansMono-20" transform="translate(1565.332031 0)"/>
     <use xlink:href="#DejaVuSansMono-2b" transform="translate(1625.537109 0)"/>
     <use xlink:href="#DejaVuSansMono-20" transform="translate(1685.742188 0)"/>
     <use xlink:href="#DejaVuSansMono-56" transform="translate(1745.947266 0)"/>
     <use xlink:href="#DejaVuSansMono-69" transform="translate(1806.152344 0)"/>
     <use xlink:href="#DejaVuSansMono-73" transform="translate(1866.357422 0)"/>
     <use xlink:href="#DejaVuSansMono-69" transform="translate(1926.5625 0)"/>
     <use xlink:href="#DejaVuSansMono-6f" transform="translate(1986.767578 0)"/>
     <use xlink:href="#DejaVuSansMono-6e" transform="translate(2046.972656 0)"/>
     <use xlink:href="#DejaVuSansMono-20" transform="translate(2107.177734 0)"/>
     <use xlink:href="#DejaVuSansMono-50" transform="translate(2167.382812 0)"/>
     <use xlink:href="#DejaVuSansMono-69" transform="translate(2227.587891 0)"/>
     <use xlink:href="#DejaVuSansMono-70" transform="translate(2287.792969 0)"/>
     <use xlink:href="#DejaVuSansMono-65" transform="translate(2347.998047 0)"/>
     <use xlink:href="#DejaVuSansMono-6c" transform="translate(2408.203125 0)"/>
     <use xlink:href="#DejaVuSansMono-69" transform="translate(2468.408203 0)"/>
     <use xlink:href="#DejaVuSansMono-6e" transform="translate(2528.613281 0)"/>
     <use xlink:href="#DejaVuSansMono-65" transform="translate(2588.818359 0)"/>
    </g>
    <!-- LIVE ALPHA: 1.42  |  SHARPE: 2.1 -->
    <g style="fill: #00ffcc" transform="translate(40.87875 96.72775) scale(0.1 -0.1)">
     <defs>
      <path id="DejaVuSansMono-48" d="M 428 4666 
L 1063 4666 
L 1063 2753 
L 2791 2753 
L 2791 4666 
L 3425 4666 
L 3425 0 
L 2791 0 
L 2791 2222 
L 1063 2222 
L 1063 0 
L 428 0 
L 428 4666 
z
" transform="scale(0.015625)"/>
      <path id="DejaVuSansMono-31" d="M 844 531 
L 1825 531 
L 1825 4097 
L 769 3859 
L 769 4434 
L 1819 4666 
L 2450 4666 
L 2450 531 
L 3419 531 
L 3419 0 
L 844 0 
L 844 531 
z
" transform="scale(0.015625)"/>
      <path id="DejaVuSansMono-2e" d="M 1528 953 
L 2316 953 
L 2316 0 
L 1528 0 
L 1528 953 
z
" transform="scale(0.015625)"/>
      <path id="DejaVuSansMono-34" d="M 2297 4091 
L 825 1625 
L 2297 1625 
L 2297 4091 
z
M 2194 4666 
L 2925 4666 
L 2925 1625 
L 3547 1625 
L 3547 1113 
L 2925 1113 
L 2925 0 
L 2297 0 
L 2297 1113 
L 319 1113 
L 319 1709 
L 2194 4666 
z
" transform="scale(0.015625)"/>
     </defs>
     <use xlink:href="#DejaVuSansMono-4c"/>
     <use xlink:href="#DejaVuSansMono-49" transform="translate(60.205078 0)"/>
     <use xlink:href="#DejaVuSansMono-56" transform="translate(120.410156 0)"/>
     <use xlink:href="#DejaVuSansMono-45" transform="translate(180.615234 0)"/>
     <use xlink:href="#DejaVuSansMono-20" transform="translate(240.820312 0)"/>
     <use xlink:href="#DejaVuSansMono-41" transform="translate(301.025391 0)"/>
     <use xlink:href="#DejaVuSansMono-4c" transform="translate(361.230469 0)"/>
     <use xlink:href="#DejaVuSansMono-50" transform="translate(421.435547 0)"/>
     <use xlink:href="#DejaVuSansMono-48" transform="translate(481.640625 0)"/>
     <use xlink:href="#DejaVuSansMono-41" transform="translate(541.845703 0)"/>
     <use xlink:href="#DejaVuSansMono-3a" transform="translate(602.050781 0)"/>
     <use xlink:href="#DejaVuSansMono-20" transform="translate(662.255859 0)"/>
     <use xlink:href="#DejaVuSansMono-31" transform="translate(722.460938 0)"/>
     <use xlink:href="#DejaVuSansMono-2e" transform="translate(782.666016 0)"/>
     <use xlink:href="#DejaVuSansMono-34" transform="translate(842.871094 0)"/>
     <use xlink:href="#DejaVuSansMono-32" transform="translate(903.076172 0)"/>
     <use xlink:href="#DejaVuSansMono-20" transform="translate(963.28125 0)"/>
     <use xlink:href="#DejaVuSansMono-20" transform="translate(1023.486328 0)"/>
     <use xlink:href="#DejaVuSansMono-7c" transform="translate(1083.691406 0)"/>
     <use xlink:href="#DejaVuSansMono-20" transform="translate(1143.896484 0)"/>
     <use xlink:href="#DejaVuSansMono-20" transform="translate(1204.101562 0)"/>
     <use xlink:href="#DejaVuSansMono-53" transform="translate(1264.306641 0)"/>
     <use xlink:href="#DejaVuSansMono-48" transform="translate(1324.511719 0)"/>
     <use xlink:href="#DejaVuSansMono-41" transform="translate(1384.716797 0)"/>
     <use xlink:href="#DejaVuSansMono-52" transform="translate(1444.921875 0)"/>
     <use xlink:href="#DejaVuSansMono-50" transform="translate(1505.126953 0)"/>
     <use xlink:href="#DejaVuSansMono-45" transform="translate(1565.332031 0)"/>
     <use xlink:href="#DejaVuSansMono-3a" transform="translate(1625.537109 0)"/>
     <use xlink:href="#DejaVuSansMono-20" transform="translate(1685.742188 0)"/>
     <use xlink:href="#DejaVuSansMono-32" transform="translate(1745.947266 0)"/>
     <use xlink:href="#DejaVuSansMono-2e" transform="translate(1806.152344 0)"/>
     <use xlink:href="#DejaVuSansMono-31" transform="translate(1866.357422 0)"/>
    </g>
   </g>
   <g id="text_28">
    <!-- STRATEGY CONFUSION MATRIX -->
    <g style="fill: #ffffff" transform="translate(209.1225 19.3575) scale(0.16 -0.16)">
     <defs>
      <path id="DejaVuSansMono-Bold-53" d="M 1594 2047 
Q 897 2313 650 2605 
Q 403 2897 403 3391 
Q 403 4025 809 4387 
Q 1216 4750 1925 4750 
Q 2247 4750 2569 4676 
Q 2891 4603 3206 4459 
L 3206 3559 
Q 2909 3769 2603 3878 
Q 2297 3988 1997 3988 
Q 1663 3988 1484 3853 
Q 1306 3719 1306 3469 
Q 1306 3275 1436 3148 
Q 1566 3022 1978 2869 
L 2375 2719 
Q 2938 2513 3203 2172 
Q 3469 1831 3469 1313 
Q 3469 606 3051 257 
Q 2634 -91 1791 -91 
Q 1444 -91 1095 -8 
Q 747 75 422 238 
L 422 1191 
Q 791 928 1136 800 
Q 1481 672 1819 672 
Q 2159 672 2346 826 
Q 2534 981 2534 1259 
Q 2534 1469 2409 1626 
Q 2284 1784 2047 1875 
L 1594 2047 
z
" transform="scale(0.015625)"/>
      <path id="DejaVuSansMono-Bold-59" d="M 25 4666 
L 1019 4666 
L 1925 2791 
L 2834 4666 
L 3828 4666 
L 2388 1838 
L 2388 0 
L 1466 0 
L 1466 1838 
L 25 4666 
z
" transform="scale(0.015625)"/>
      <path id="DejaVuSansMono-Bold-46" d="M 3475 3853 
L 1491 3853 
L 1491 2847 
L 3297 2847 
L 3297 2034 
L 1491 2034 
L 1491 0 
L 569 0 
L 569 4666 
L 3475 4666 
L 3475 3853 
z
" transform="scale(0.015625)"/>
      <path id="DejaVuSansMono-Bold-58" d="M 3769 0 
L 2816 0 
L 1925 1544 
L 1038 0 
L 84 0 
L 1453 2369 
L 122 4666 
L 1075 4666 
L 1925 3181 
L 2778 4666 
L 3731 4666 
L 2406 2369 
L 3769 0 
z
" transform="scale(0.015625)"/>
     </defs>
     <use xlink:href="#DejaVuSansMono-Bold-53"/>
     <use xlink:href="#DejaVuSansMono-Bold-54" transform="translate(60.205078 0)"/>
     <use xlink:href="#DejaVuSansMono-Bold-52" transform="translate(120.410156 0)"/>
     <use xlink:href="#DejaVuSansMono-Bold-41" transform="translate(180.615234 0)"/>
     <use xlink:href="#DejaVuSansMono-Bold-54" transform="translate(240.820312 0)"/>
     <use xlink:href="#DejaVuSansMono-Bold-45" transform="translate(301.025391 0)"/>
     <use xlink:href="#DejaVuSansMono-Bold-47" transform="translate(361.230469 0)"/>
     <use xlink:href="#DejaVuSansMono-Bold-59" transform="translate(421.435547 0)"/>
     <use xlink:href="#DejaVuSansMono-Bold-20" transform="translate(481.640625 0)"/>
     <use xlink:href="#DejaVuSansMono-Bold-43" transform="translate(541.845703 0)"/>
     <use xlink:href="#DejaVuSansMono-Bold-4f" transform="translate(602.050781 0)"/>
     <use xlink:href="#DejaVuSansMono-Bold-4e" transform="translate(662.255859 0)"/>
     <use xlink:href="#DejaVuSansMono-Bold-46" transform="translate(722.460938 0)"/>
     <use xlink:href="#DejaVuSansMono-Bold-55" transform="translate(782.666016 0)"/>
     <use xlink:href="#DejaVuSansMono-Bold-53" transform="translate(842.871094 0)"/>
     <use xlink:href="#DejaVuSansMono-Bold-49" transform="translate(903.076172 0)"/>
     <use xlink:href="#DejaVuSansMono-Bold-4f" transform="translate(963.28125 0)"/>
     <use xlink:href="#DejaVuSansMono-Bold-4e" transform="translate(1023.486328 0)"/>
     <use xlink:href="#DejaVuSansMono-Bold-20" transform="translate(1083.691406 0)"/>
     <use xlink:href="#DejaVuSansMono-Bold-4d" transform="translate(1143.896484 0)"/>
     <use xlink:href="#DejaVuSansMono-Bold-41" transform="translate(1204.101562 0)"/>
     <use xlink:href="#DejaVuSansMono-Bold-54" transform="translate(1264.306641 0)"/>
     <use xlink:href="#DejaVuSansMono-Bold-52" transform="translate(1324.511719 0)"/>
     <use xlink:href="#DejaVuSansMono-Bold-49" transform="translate(1384.716797 0)"/>
     <use xlink:href="#DejaVuSansMono-Bold-58" transform="translate(1444.921875 0)"/>
    </g>
   </g>
  </g>
 </g>
 <defs>
  <clipPath id="pd3181a7c62">
   <rect x="98.60875" y="102.089375" width="461.84" height="313.84"/>
  </clipPath>
 </defs>
</svg>
